<svg xmlns="http://www.w3.org/2000/svg" width="512" height="512" viewBox="0 0 512 512" version="1.1">
	<path d="M 67.500 1.871 C 63.518 4.344, 60.374 7.865, 59.067 11.315 C 58.322 13.281, 58 86.846, 58 255.097 C 58 470.330, 58.165 496.460, 59.548 499.768 C 61.612 504.710, 64.659 507.876, 69.500 510.110 C 73.343 511.884, 80.799 511.957, 259.300 511.978 C 463.506 512.002, 449.168 512.443, 452.483 506.033 C 453.827 503.435, 454 475.604, 454 262.504 L 454 21.909 451.479 19.388 C 449.938 17.847, 448.090 16.990, 446.729 17.183 L 444.500 17.500 444 254.096 C 443.560 462.439, 443.321 490.909, 442 492.501 C 438.136 497.160, 444.456 497, 263.782 496.994 C 143.761 496.990, 92.319 496.666, 89.500 495.896 C 80.664 493.483, 75 486.117, 75 477.040 L 75 472 249.750 471.998 C 414.144 471.997, 424.703 471.893, 427.929 470.248 C 429.815 469.287, 432.290 467.230, 433.429 465.677 L 435.500 462.853 435.786 237.677 C 435.943 113.830, 435.817 11.070, 435.504 9.322 C 435.192 7.574, 433.645 4.761, 432.067 3.072 L 429.198 0 249.849 0.004 C 76.632 0.007, 70.397 0.071, 67.500 1.871 M 106.247 236.750 L 106.500 403.500 246.750 403.753 L 387 404.007 387 237.003 L 387 70 246.497 70 L 105.994 70 106.247 236.750 M 214.566 228.521 L 187.631 272.026 183.360 267.263 C 181.012 264.643, 179.069 262.163, 179.045 261.750 C 179.020 261.337, 178.577 261, 178.061 261 C 177.544 261, 163.369 281.026, 146.561 305.501 L 116 350.002 116 372.666 L 116 395.329 194.165 394.665 C 237.156 394.299, 296.106 394, 325.165 394 L 378 394 378 359.382 L 378 324.763 355.337 276.382 C 342.872 249.772, 332.353 228, 331.961 228 C 331.570 228, 322.157 243.075, 311.045 261.500 C 299.932 279.925, 290.538 294.991, 290.170 294.980 C 289.801 294.970, 278.930 270.220, 266.010 239.980 C 253.091 209.741, 242.291 185.004, 242.010 185.008 C 241.730 185.013, 229.380 204.594, 214.566 228.521" stroke="none" fill="black" fill-rule="evenodd"/>
</svg>